<?xml version="1.0" standalone="no"?>
<!DOCTYPE svg PUBLIC "-//W3C//DTD SVG 20010904//EN"
 "http://www.w3.org/TR/2001/REC-SVG-20010904/DTD/svg10.dtd">
<svg version="1.0" xmlns="http://www.w3.org/2000/svg"
 width="1500.000000pt" height="1500.000000pt" viewBox="0 0 1500.000000 1500.000000"
 preserveAspectRatio="xMidYMid meet">

<g transform="translate(0.000000,1500.000000) scale(0.100000,-0.100000)"
fill="#000000" stroke="none">
<path d="M12045 9290 l-36 -71 16 -47 c16 -47 15 -84 -5 -197 -27 -148 -211
-1092 -215 -1102 -3 -10 99 -14 488 -15 654 -4 646 -4 706 16 80 26 128 63
190 146 65 87 152 151 239 177 72 21 207 21 289 0 223 -58 336 -209 378 -509
l6 -47 47 5 c110 14 196 35 235 56 l42 23 8 135 c5 77 4 196 -1 277 -8 129
-12 149 -40 205 -78 158 -203 233 -489 293 -195 41 -308 95 -598 285 -346 227
-633 340 -1069 420 -159 29 -150 31 -191 -50z m410 -170 c340 -87 598 -211
766 -368 67 -62 126 -138 117 -148 -16 -16 -502 42 -853 101 -301 51 -363 63
-370 75 -7 12 7 103 42 264 l28 128 60 -7 c33 -3 128 -24 210 -45z m1677 -665
c102 -33 154 -98 133 -164 -5 -18 -12 -20 -48 -15 -121 17 -233 67 -321 145
-43 38 -46 44 -30 51 32 13 205 2 266 -17z m184 -435 c34 -51 42 -121 21 -173
-9 -20 -20 -37 -25 -37 -13 0 -42 63 -49 105 -7 43 5 145 18 145 5 0 21 -18
35 -40z"/>
<path d="M2500 8360 c-157 -369 -286 -677 -288 -685 -3 -13 17 -15 148 -13
l151 3 59 144 c33 80 63 148 68 153 5 5 135 7 291 6 l282 -3 59 -144 c33 -80
63 -148 68 -153 5 -5 76 -7 160 -6 l151 3 -103 240 c-56 132 -187 439 -291
683 l-188 442 -141 0 -141 0 -285 -670z m433 288 c3 -7 41 -102 86 -210 45
-109 81 -200 81 -203 0 -3 -79 -5 -175 -5 -125 0 -175 3 -175 11 0 18 164 418
171 419 4 0 9 -6 12 -12z"/>
<path d="M3845 9018 c-3 -7 -4 -314 -3 -683 l3 -670 147 -3 148 -3 2 431 3
430 326 -427 326 -428 126 0 127 0 0 680 0 680 -145 3 -145 3 0 -416 c0 -228
-3 -415 -7 -414 -5 0 -149 187 -322 415 l-314 414 -134 0 c-98 0 -135 -3 -138
-12z"/>
<path d="M5270 8890 l0 -140 205 0 205 0 2 -542 3 -543 147 -3 148 -3 2 543 3
543 208 3 208 2 -3 138 -3 137 -562 3 -563 2 0 -140z"/>
<path d="M6818 8853 c-42 -98 -166 -389 -276 -648 -110 -258 -207 -487 -215
-507 l-16 -38 153 0 154 0 62 155 62 155 288 0 288 0 62 -155 62 -155 154 0
c85 0 154 4 154 9 0 5 -68 168 -150 363 -83 194 -213 498 -288 676 l-136 322
-142 0 -141 0 -75 -177z m302 -399 c47 -114 87 -210 88 -215 2 -5 -77 -9 -178
-9 -101 0 -180 4 -178 9 35 92 174 421 178 421 3 0 44 -93 90 -206z"/>
<path d="M7950 8345 l0 -685 490 0 490 0 0 135 0 135 -337 2 -338 3 -3 548 -2
547 -150 0 -150 0 0 -685z"/>
<path d="M8800 9019 c0 -6 114 -189 253 -407 l252 -397 5 -275 5 -275 148 -3
147 -3 0 270 0 269 260 407 c143 223 260 411 260 416 0 6 -65 8 -167 7 l-167
-3 -165 -273 -165 -273 -17 28 c-9 16 -83 139 -164 276 l-147 247 -169 0
c-116 0 -169 -3 -169 -11z"/>
<path d="M10250 8358 c-157 -369 -286 -677 -288 -685 -3 -11 23 -13 149 -11
l152 3 62 150 61 150 288 0 288 0 62 -150 61 -150 159 -3 c125 -2 157 0 153
10 -3 7 -134 315 -291 683 l-285 670 -143 2 -143 3 -285 -672z m514 96 c47
-116 86 -214 86 -217 0 -4 -79 -7 -175 -7 -104 0 -175 4 -175 10 0 11 172 431
175 428 2 -2 42 -98 89 -214z"/>
<path d="M10920 9027 c0 -2 17 -44 39 -93 l38 -89 454 -3 454 -2 18 84 c9 46
17 89 17 95 0 8 -141 11 -510 11 -280 0 -510 -1 -510 -3z"/>
<path d="M456 8930 c-9 -22 -16 -43 -16 -45 0 -3 346 -5 768 -5 l768 0 22 45
22 45 -774 0 -774 0 -16 -40z"/>
<path d="M2102 8943 c-5 -16 -13 -36 -17 -45 -7 -17 10 -18 278 -18 l285 0 16
40 c9 22 16 43 16 45 0 3 -128 5 -284 5 l-284 0 -10 -27z"/>
<path d="M981 8685 c-16 -35 -32 -73 -36 -85 -6 -20 -6 -20 743 -20 l749 0 33
73 c18 39 35 78 37 85 4 9 -149 12 -746 12 l-751 0 -29 -65z"/>
<path d="M11090 8628 c21 -51 97 -230 168 -398 l130 -305 166 -3 c91 -1 166 1
166 5 0 5 7 40 15 80 30 145 145 707 145 710 0 2 -187 3 -415 3 l-414 0 39
-92z"/>
<path d="M1514 8413 c-45 -101 -66 -147 -75 -170 l-9 -23 454 0 453 0 31 68
c17 37 42 93 56 125 l26 57 -455 0 -455 0 -26 -57z"/>
<path d="M13475 8086 c-166 -41 -285 -169 -316 -341 -24 -127 22 -267 118
-363 63 -63 138 -100 233 -114 133 -20 254 20 350 114 200 198 152 534 -96
665 -97 51 -190 63 -289 39z m152 -247 c62 -23 113 -95 113 -159 0 -40 -32
-102 -66 -129 -37 -29 -96 -45 -139 -37 -46 9 -110 66 -126 113 -43 130 91
260 218 212z"/>
<path d="M11468 7736 l27 -66 712 0 712 0 11 56 c7 30 9 59 5 62 -4 4 -341 8
-751 10 l-743 3 27 -65z"/>
<path d="M4530 7528 c-52 -15 -100 -56 -122 -104 -18 -41 -19 -68 -16 -491 l3
-448 23 -38 c13 -20 45 -50 70 -65 l47 -27 445 0 445 0 42 24 c24 14 55 42 70
64 l28 40 3 449 c2 423 2 451 -17 492 -22 50 -69 89 -126 105 -51 14 -845 13
-895 -1z m451 -299 l114 -150 3 150 3 151 54 0 55 0 0 -250 0 -250 -50 0 -49
0 -118 155 -118 155 -3 -155 -3 -155 -54 0 -55 0 0 250 0 250 54 0 53 0 114
-151z m97 -452 c15 -16 15 -18 -4 -37 -17 -17 -25 -19 -48 -10 -38 14 -44 13
-71 -15 -31 -30 -34 -50 -6 -35 44 23 119 1 142 -41 16 -31 14 -83 -5 -111
-22 -33 -57 -48 -112 -48 -57 0 -97 35 -114 101 -21 78 16 185 74 210 33 14
125 5 144 -14z"/>
<path d="M4948 6619 c-21 -12 -24 -49 -6 -67 7 -7 24 -12 38 -12 32 0 50 17
50 47 0 35 -46 54 -82 32z"/>
<path d="M5756 7526 c-50 -19 -104 -71 -117 -116 -6 -22 -9 -197 -7 -486 l3
-451 29 -37 c16 -22 50 -48 80 -62 l51 -24 416 0 c455 0 473 2 532 58 64 60
62 43 62 537 l0 450 -25 43 c-15 27 -42 54 -70 70 l-45 27 -435 2 c-352 2
-442 0 -474 -11z m601 -336 c46 -107 94 -221 108 -252 l24 -58 -59 0 -60 0
-25 55 -24 55 -104 0 -104 0 -20 -52 -20 -53 -57 -3 c-31 -2 -56 1 -56 6 0 7
126 309 200 480 9 20 16 23 62 20 l52 -3 83 -195z m-55 -420 c51 -63 34 -118
-62 -192 l-35 -28 63 0 62 0 0 -35 0 -35 -115 0 -115 0 0 33 c1 26 9 38 43 64
84 63 107 90 107 122 0 28 -3 31 -32 31 -17 0 -39 -7 -49 -16 -16 -14 -20 -14
-44 2 l-27 18 37 34 c35 32 41 34 93 30 42 -4 60 -10 74 -28z"/>
<path d="M6193 7183 c-12 -32 -25 -66 -29 -75 -5 -16 1 -18 56 -18 55 0 61 2
56 18 -32 84 -52 132 -56 132 -3 0 -15 -26 -27 -57z"/>
<path d="M6996 7525 c-56 -20 -86 -45 -110 -91 -20 -37 -21 -57 -24 -467 -2
-285 1 -441 8 -468 6 -22 27 -58 46 -79 62 -69 74 -70 543 -70 416 0 416 0
466 24 58 27 78 47 100 99 13 31 15 103 15 477 0 475 1 469 -54 528 -52 58
-44 57 -516 59 -356 2 -442 0 -474 -12z m376 -249 l3 -104 95 104 95 104 70 0
69 0 -69 -72 c-39 -40 -85 -89 -102 -108 l-32 -35 75 -100 c42 -55 89 -119
105 -142 l30 -43 -68 0 -68 0 -75 105 -75 104 -27 -27 c-26 -24 -28 -32 -28
-104 l0 -78 -60 0 -60 0 0 250 0 250 60 0 59 0 3 -104z m183 -511 l0 -30 -67
-3 c-60 -3 -68 -5 -68 -22 0 -16 7 -20 31 -20 109 0 158 -117 78 -184 -39 -33
-117 -36 -167 -6 -32 20 -32 21 -16 45 19 30 21 30 63 9 26 -13 38 -14 57 -5
61 27 32 77 -43 73 -73 -3 -83 16 -67 132 l7 47 96 -3 96 -3 0 -30z"/>
<path d="M8231 7525 c-51 -16 -86 -46 -112 -97 -18 -35 -19 -64 -19 -478 0
-374 2 -446 15 -477 22 -52 42 -72 100 -99 50 -24 50 -24 466 -24 455 0 473 2
533 58 16 15 37 45 47 67 17 37 19 73 19 464 0 306 -3 435 -12 465 -17 56 -74
110 -131 124 -70 18 -848 15 -906 -3z m409 -345 l0 -200 125 0 125 0 0 -50 0
-50 -180 0 -180 0 0 250 0 250 55 0 55 0 0 -200z m150 -415 l0 -35 -65 0 c-57
0 -65 -2 -65 -19 0 -15 10 -19 47 -24 61 -7 93 -41 93 -98 0 -22 -5 -49 -10
-60 -27 -49 -129 -65 -187 -29 -38 23 -40 31 -15 54 17 15 22 15 57 0 49 -20
85 -7 85 31 0 30 -30 45 -78 38 -51 -8 -62 9 -62 92 0 39 3 75 7 78 3 4 48 7
100 7 l93 0 0 -35z"/>
<path d="M9478 7530 c-50 -15 -93 -48 -116 -88 -22 -39 -22 -44 -22 -491 0
-500 -1 -494 64 -548 63 -51 80 -53 527 -53 l414 0 51 24 c30 14 64 40 80 62
l29 37 3 446 c2 245 0 461 -3 479 -7 38 -55 96 -99 120 -28 15 -78 17 -466 19
-239 1 -447 -2 -462 -7z m512 -190 c0 -44 -15 -55 -87 -67 l-33 -6 0 57 0 56
60 0 60 0 0 -40z m0 -286 l0 -174 -60 0 -60 0 2 162 3 161 50 17 c28 10 53 15
58 13 4 -2 7 -83 7 -179z m30 -349 c0 -88 1 -95 20 -95 16 0 20 -7 20 -30 0
-23 -5 -30 -19 -30 -15 0 -21 -8 -23 -32 -3 -30 -6 -33 -38 -33 -32 0 -35 3
-38 33 l-3 32 -73 0 c-70 0 -74 1 -78 25 -4 19 12 44 81 125 76 88 90 100 119
100 l32 0 0 -95z"/>
<path d="M9901 6649 l-33 -39 38 0 c39 0 39 0 39 40 0 22 -2 40 -5 39 -3 0
-20 -18 -39 -40z"/>
<path d="M10710 7528 c-51 -14 -95 -52 -119 -101 -20 -42 -21 -57 -21 -474 0
-303 3 -440 12 -464 17 -50 45 -83 91 -110 l42 -24 446 0 446 0 48 30 c32 20
56 45 72 74 l23 44 0 441 c0 409 -2 444 -19 482 -22 49 -70 88 -126 103 -51
14 -845 13 -895 -1z m396 -243 c31 -52 60 -93 64 -90 4 3 32 45 61 95 l53 90
64 0 c35 0 62 -4 60 -8 -1 -5 -45 -74 -95 -154 l-93 -145 0 -96 0 -97 -55 0
-55 0 0 97 0 96 -92 145 c-51 80 -94 149 -96 154 -2 4 26 8 62 8 l65 0 57 -95z
m134 -513 c69 -69 60 -211 -17 -272 -23 -18 -38 -21 -86 -18 -35 3 -64 11 -74
21 -15 15 -15 18 0 41 16 24 18 24 47 9 39 -19 73 -11 88 22 15 33 15 42 0 27
-7 -7 -32 -12 -56 -12 -59 0 -102 41 -102 97 1 75 41 112 123 113 40 0 53 -5
77 -28z"/>
<path d="M11122 6728 c-7 -7 -12 -21 -12 -33 0 -28 19 -45 50 -45 31 0 50 17
50 45 0 28 -19 45 -50 45 -14 0 -31 -5 -38 -12z"/>
<path d="M11936 7526 c-47 -18 -94 -60 -112 -103 -11 -26 -14 -122 -14 -478 0
-418 1 -448 19 -483 24 -47 45 -66 101 -91 43 -20 64 -21 461 -21 455 0 473 2
532 58 64 60 62 43 62 537 l0 450 -25 43 c-15 27 -42 54 -70 70 l-45 27 -435
2 c-352 2 -442 0 -474 -11z m664 -196 l0 -50 -135 0 -135 0 0 -50 0 -50 120 0
120 0 0 -50 0 -50 -120 0 -120 0 0 -50 0 -49 138 -3 137 -3 3 -47 3 -48 -195
0 -196 0 0 250 0 250 190 0 190 0 0 -50z m-92 -561 c2 -21 -6 -35 -39 -63 -24
-20 -38 -36 -32 -36 7 0 25 -12 42 -26 51 -43 38 -120 -26 -153 -34 -17 -104
-13 -140 9 -39 24 -40 30 -10 59 21 18 26 20 36 7 31 -37 105 -24 99 17 -2 17
-13 24 -45 31 -60 14 -65 38 -19 85 l35 36 -57 0 -57 0 -3 33 -3 33 108 -3
108 -3 3 -26z"/>
<path d="M2284 7395 c-106 -53 -116 -99 -112 -492 3 -297 3 -299 28 -348 36
-69 105 -105 199 -105 109 1 186 51 211 138 14 51 13 645 -1 697 -33 117 -199
173 -325 110z m151 -111 c41 -16 45 -50 45 -349 0 -231 -3 -291 -15 -314 -24
-48 -81 -56 -120 -16 l-25 24 0 306 0 306 25 24 c24 24 57 31 90 19z"/>
<path d="M2736 7248 c-3 -90 -9 -214 -13 -275 l-6 -113 71 0 72 0 0 38 c0 56
23 82 71 82 77 0 94 -48 87 -241 -3 -107 -4 -112 -31 -135 -34 -29 -66 -30
-101 -3 -24 19 -26 27 -26 90 l0 69 -70 0 -70 0 0 -69 c0 -161 73 -241 220
-241 114 0 185 51 210 151 7 29 10 110 8 220 -2 147 -6 180 -22 213 -27 54
-67 76 -143 76 -52 0 -66 -4 -93 -26 -17 -15 -32 -25 -34 -23 -1 2 0 51 3 109
l6 105 130 3 130 3 0 64 0 65 -196 0 -196 0 -7 -162z"/>
<path d="M3486 7378 c-268 -635 -256 -602 -256 -677 l0 -71 145 0 145 0 0 -85
0 -85 70 0 70 0 0 85 0 85 35 0 35 0 0 64 0 65 -32 3 -33 3 -3 323 -2 322 -80
0 -80 0 -14 -32z m32 -440 l-3 -173 -72 -3 c-55 -2 -73 0 -73 10 0 20 134 337
143 338 4 0 6 -78 5 -172z"/>
<path d="M3812 7163 c-7 -137 -12 -260 -12 -275 0 -28 1 -28 64 -28 l63 0 7
40 c8 52 36 80 81 80 72 0 92 -62 83 -253 -5 -94 -7 -102 -32 -124 -34 -29
-68 -29 -101 0 -23 19 -28 33 -32 90 l-6 67 -63 0 -64 0 0 -67 c0 -85 13 -134
47 -174 39 -46 96 -69 173 -69 114 0 185 51 210 151 7 29 10 110 8 220 -2 147
-6 180 -22 213 -27 54 -67 76 -143 76 -52 0 -66 -4 -93 -26 -17 -15 -33 -25
-35 -22 -2 2 -1 51 3 108 l7 105 133 3 132 3 0 64 0 65 -198 0 -198 0 -12
-247z"/>
</g>
</svg>
