<?xml version="1.0" standalone="no"?>
<!DOCTYPE svg PUBLIC "-//W3C//DTD SVG 20010904//EN"
 "http://www.w3.org/TR/2001/REC-SVG-20010904/DTD/svg10.dtd">
<svg version="1.0" xmlns="http://www.w3.org/2000/svg"
 width="2084.000000pt" height="2084.000000pt" viewBox="0 0 2084.000000 2084.000000"
 preserveAspectRatio="xMidYMid meet">

<g transform="translate(0.000000,2084.000000) scale(0.100000,-0.100000)"
fill="#000000" stroke="none">
<path d="M16796 12966 l-55 -104 20 -38 c33 -63 22 -205 -40 -519 -29 -143
-86 -433 -127 -645 -41 -212 -90 -461 -109 -555 -18 -93 -33 -171 -32 -172 1
-1 371 -2 822 -4 l820 -2 63 22 c120 41 187 95 282 227 80 110 177 183 298
224 244 81 572 16 735 -147 131 -130 194 -279 238 -560 6 -42 16 -73 22 -73 7
0 71 9 142 19 148 22 206 39 277 83 l50 31 -4 361 c-4 339 -5 365 -26 427 -51
153 -179 296 -335 374 -106 53 -173 74 -377 115 -259 53 -449 137 -748 331
-363 236 -424 273 -567 343 -317 156 -673 265 -1110 341 -82 14 -156 25 -166
25 -12 0 -35 -33 -73 -104z m359 -191 c111 -20 359 -83 484 -125 435 -144 784
-357 950 -578 28 -37 51 -71 51 -76 0 -7 -161 -1 -245 9 -16 3 -84 9 -150 15
-283 26 -942 127 -1250 191 -27 5 -60 12 -72 15 -21 4 -23 10 -23 60 0 64 56
354 97 497 5 19 -2 20 158 -8z m2580 -989 c133 -36 201 -89 224 -173 13 -46
-3 -93 -32 -93 -57 0 -217 43 -290 77 -81 38 -181 105 -245 167 l-33 31 28 7
c50 12 284 1 348 -16z m310 -660 c32 -64 34 -160 5 -223 -10 -24 -23 -43 -29
-43 -5 0 -22 26 -38 58 -24 49 -28 69 -28 142 0 47 4 102 8 124 l8 38 25 -23
c13 -12 35 -45 49 -73z"/>
<path d="M3571 12478 c-67 -157 -303 -710 -565 -1327 -113 -266 -206 -488
-206 -493 0 -5 98 -7 217 -6 l216 3 86 212 86 213 411 0 411 0 48 -117 c26
-65 66 -162 88 -215 l40 -98 224 0 c176 0 224 3 220 13 -12 28 -628 1472 -722
1692 l-102 240 -200 3 -200 2 -52 -122z m329 -593 c40 -99 95 -233 121 -297
27 -65 49 -120 49 -123 0 -3 -115 -5 -256 -5 -201 0 -255 3 -251 13 3 6 61
146 128 310 67 164 125 294 129 290 4 -4 39 -89 80 -188z"/>
<path d="M9461 12583 c-8 -17 -215 -500 -568 -1333 -86 -201 -177 -417 -204
-480 -27 -63 -49 -116 -49 -117 0 -2 98 -3 219 -3 200 0 219 2 224 18 3 9 41
105 85 212 l80 195 413 0 413 0 73 -180 c40 -99 79 -195 88 -212 l15 -33 220
0 c121 0 220 3 220 7 0 4 -82 198 -181 432 -100 234 -248 584 -330 776 -82
193 -186 437 -231 543 l-82 192 -198 0 c-178 0 -198 -2 -207 -17z m333 -821
c64 -155 116 -287 116 -292 0 -6 -96 -10 -251 -10 -235 0 -251 1 -246 18 6 21
236 582 244 596 4 5 10 1 14 -10 4 -10 59 -146 123 -302z"/>
<path d="M14515 12278 c-180 -423 -584 -1372 -645 -1516 l-48 -112 220 2 220
3 86 213 86 212 411 0 412 0 76 -187 c42 -104 81 -200 86 -215 l11 -28 225 0
225 0 -13 33 c-17 38 -450 1056 -612 1437 -62 146 -133 312 -157 370 l-45 105
-200 3 -201 2 -137 -322z m466 -520 c65 -160 119 -293 119 -294 0 -2 -115 -4
-256 -4 -141 0 -254 4 -252 8 155 388 253 611 261 597 5 -9 62 -147 128 -307z"/>
<path d="M15197 12583 c4 -10 30 -72 59 -138 l51 -120 646 -3 646 -2 11 57 c7
32 20 95 29 141 l18 82 -733 0 c-694 0 -733 -1 -727 -17z"/>
<path d="M5130 11620 l0 -970 210 0 210 0 0 613 1 612 24 -30 c25 -32 128
-168 605 -794 l305 -401 183 0 182 0 0 970 0 970 -210 0 -210 0 0 -592 -1
-593 -27 31 c-15 17 -218 283 -452 592 l-425 561 -197 0 -198 1 0 -970z"/>
<path d="M7154 12577 c-2 -7 -3 -96 -2 -197 l3 -185 293 -3 292 -2 0 -770 0
-770 215 0 215 0 0 770 0 770 295 0 295 0 0 200 0 200 -800 0 c-642 0 -802 -3
-806 -13z"/>
<path d="M10970 11620 l0 -970 700 0 700 0 -2 193 -3 192 -482 3 -483 2 0 775
0 775 -215 0 -215 0 0 -970z"/>
<path d="M12170 12585 c0 -3 118 -191 262 -418 144 -226 310 -489 370 -583
l108 -171 0 -382 0 -381 215 0 215 0 0 388 1 387 64 100 c35 55 99 156 143
225 44 69 181 284 306 479 124 194 226 355 226 357 0 2 -109 4 -242 4 l-243
-1 -229 -380 c-126 -209 -233 -382 -236 -384 -4 -3 -110 168 -236 380 l-228
385 -248 0 c-137 0 -248 -2 -248 -5z"/>
<path d="M307 12458 c-15 -35 -27 -66 -27 -70 0 -5 493 -8 1095 -8 l1096 0 29
66 c17 36 30 68 30 70 0 2 -494 4 -1098 4 l-1098 0 -27 -62z"/>
<path d="M2655 12485 c-8 -19 -22 -51 -30 -70 l-15 -35 406 2 c349 3 408 5
415 18 5 8 19 39 33 68 l24 52 -409 0 -409 0 -15 -35z"/>
<path d="M1078 12163 c-11 -27 -36 -81 -54 -122 -19 -41 -34 -75 -34 -77 0 -2
482 -3 1071 -2 l1071 3 54 120 c30 65 54 121 54 122 0 2 -482 3 -1071 3
l-1070 0 -21 -47z"/>
<path d="M15382 12151 c2 -6 111 -264 243 -575 l240 -566 231 0 232 0 7 28 c8
33 97 464 171 827 30 149 56 276 59 283 3 9 -119 12 -591 12 -370 0 -594 -4
-592 -9z"/>
<path d="M1846 11792 c-8 -13 -156 -343 -156 -348 0 -2 292 -4 648 -4 l648 0
34 78 c19 42 50 113 70 157 21 44 40 90 44 103 l7 22 -645 0 c-355 0 -647 -4
-650 -8z"/>
<path d="M18828 11255 c-253 -62 -439 -283 -455 -544 -16 -271 137 -504 395
-598 90 -34 239 -42 336 -19 210 50 386 225 441 441 31 121 10 296 -49 412
-76 151 -240 277 -404 312 -70 15 -193 13 -264 -4z m240 -364 c151 -77 181
-280 58 -389 -48 -42 -98 -62 -154 -62 -140 0 -242 100 -242 237 1 93 50 172
135 216 44 23 156 22 203 -2z"/>
<path d="M15944 10833 c3 -10 21 -54 39 -98 l34 -80 1011 -3 1011 -2 11 57 c7
32 15 74 19 94 l8 36 -381 6 c-210 4 -691 7 -1069 7 -651 0 -688 -1 -683 -17z"/>
<path d="M6100 10461 c-74 -23 -136 -78 -169 -151 -20 -44 -21 -63 -21 -681
l0 -635 26 -52 c28 -56 63 -90 128 -125 l41 -22 640 0 640 0 41 22 c66 35 101
70 128 128 l26 54 0 633 0 634 -26 52 c-14 29 -44 67 -66 86 -78 67 -64 66
-747 65 -339 0 -627 -4 -641 -8z m642 -425 l163 -214 3 214 2 214 80 0 80 0 0
-360 0 -360 -66 0 c-46 0 -70 4 -78 14 -6 8 -83 110 -171 226 l-160 211 -3
-226 -2 -225 -80 0 -80 0 0 360 0 360 75 0 74 0 163 -214z m85 -621 c72 -22
81 -36 48 -79 -26 -34 -28 -35 -51 -20 -33 22 -89 22 -113 0 -11 -10 -24 -31
-30 -48 -10 -27 -9 -29 7 -22 9 4 42 9 72 11 100 7 165 -54 157 -148 -7 -89
-71 -139 -175 -139 -111 0 -172 72 -172 205 0 128 52 220 137 243 54 14 63 14
120 -3z"/>
<path d="M6690 9160 c-23 -23 -26 -58 -6 -86 11 -14 26 -19 61 -19 35 0 50 5
61 19 34 48 1 106 -61 106 -22 0 -43 -8 -55 -20z"/>
<path d="M7860 10461 c-49 -15 -87 -40 -124 -81 -75 -83 -71 -42 -71 -745 l0
-630 24 -52 c26 -58 80 -113 138 -140 35 -17 89 -18 652 -21 674 -3 675 -3
758 57 28 20 51 50 72 93 l32 64 -3 639 -3 640 -27 47 c-16 25 -45 60 -65 77
-75 62 -65 61 -742 60 -339 0 -627 -4 -641 -8z m743 -252 c12 -29 81 -190 153
-358 72 -168 129 -309 127 -313 -7 -14 -151 -9 -160 5 -4 6 -20 41 -34 77
l-26 65 -155 3 -155 2 -30 -77 -30 -78 -83 -3 c-64 -2 -81 0 -77 10 29 71 291
687 298 701 8 14 23 17 80 17 l71 0 21 -51z m-6 -809 c45 -27 66 -73 61 -130
-6 -57 -30 -90 -113 -155 l-65 -50 93 -5 92 -5 0 -40 0 -40 -165 0 -165 0 0
37 c0 35 6 42 100 120 114 95 134 123 119 165 -8 23 -16 29 -48 31 -31 3 -44
-2 -67 -24 l-28 -26 -30 21 c-17 13 -31 28 -31 35 0 14 44 57 75 74 34 19 136
14 172 -8z"/>
<path d="M8462 9952 c-23 -59 -42 -110 -42 -114 0 -5 41 -8 90 -8 50 0 90 2
90 5 0 8 -83 209 -89 217 -4 4 -25 -41 -49 -100z"/>
<path d="M9607 10456 c-83 -30 -140 -88 -169 -170 -16 -46 -17 -105 -18 -652
0 -673 -1 -666 69 -745 21 -24 60 -55 87 -69 l49 -25 614 -3 c697 -3 687 -4
768 71 24 22 54 59 66 82 22 40 22 46 25 669 3 719 6 691 -78 775 -84 84 -57
81 -759 81 -491 -1 -624 -4 -654 -14z m533 -356 c0 -82 3 -150 8 -149 4 0 68
68 142 149 l135 149 93 0 c50 1 92 -3 92 -7 0 -4 -27 -34 -61 -67 -33 -33 -96
-99 -139 -146 l-79 -86 149 -202 c83 -110 150 -203 150 -206 0 -3 -42 -5 -92
-5 l-93 0 -109 150 c-60 83 -112 150 -115 150 -3 0 -22 -17 -43 -37 l-38 -37
0 -113 0 -113 -80 0 -80 0 0 360 0 360 80 0 80 0 0 -150z m268 -727 l3 -42
-98 -3 -98 -3 -3 -31 -3 -32 70 -4 c61 -3 74 -7 101 -33 53 -51 60 -122 19
-191 -42 -70 -167 -88 -259 -38 -28 15 -50 30 -50 33 0 3 13 21 28 40 l28 33
35 -21 c50 -31 114 -29 135 4 36 55 -24 106 -100 86 -32 -8 -45 -7 -68 7 -25
14 -28 22 -28 68 0 28 3 79 6 113 l7 62 136 -3 136 -3 3 -42z"/>
<path d="M11374 10459 c-58 -17 -125 -72 -158 -129 l-31 -55 -3 -619 c-3 -701
-4 -692 69 -771 22 -24 62 -54 87 -67 l47 -23 614 -3 c693 -3 682 -4 765 69
26 23 57 60 69 83 l22 41 0 645 0 645 -31 55 c-33 60 -99 112 -162 130 -47 13
-1244 12 -1288 -1z m586 -494 l0 -285 175 0 175 0 0 -75 0 -75 -257 2 -258 3
-3 345 c-1 190 0 351 3 357 3 9 29 13 85 13 l80 0 0 -285z m200 -590 l0 -45
-89 0 c-93 0 -101 -4 -101 -50 0 -15 11 -18 71 -22 67 -4 73 -6 105 -41 30
-33 34 -43 34 -93 0 -68 -19 -104 -72 -134 -51 -29 -141 -29 -196 -1 -61 31
-66 42 -34 81 l28 33 30 -22 c24 -17 41 -22 80 -19 42 3 51 7 62 31 27 55 -34
98 -109 77 -24 -7 -38 -6 -60 7 -32 19 -34 31 -23 166 l7 77 133 0 134 0 0
-45z"/>
<path d="M13090 10439 c-64 -33 -112 -86 -137 -152 -8 -23 -12 -203 -12 -649
-1 -599 0 -619 20 -672 14 -39 35 -68 71 -100 85 -78 70 -76 748 -76 691 0
669 -2 756 84 87 87 84 64 84 762 0 578 -1 605 -20 656 -23 63 -85 128 -150
157 -44 20 -63 21 -671 21 l-626 0 -63 -31z m775 -249 l0 -55 -60 -22 c-96
-35 -95 -36 -95 57 l0 81 78 -3 77 -3 0 -55z m3 -402 l-3 -253 -77 -3 -78 -3
0 235 0 235 63 20 c107 34 98 57 95 -231z m42 -503 l0 -135 30 0 c28 0 30 -2
30 -40 0 -38 -2 -40 -29 -40 -28 0 -30 -2 -33 -47 l-3 -48 -47 -3 -48 -3 0 50
0 51 -109 0 -109 0 -6 35 c-6 33 -2 40 66 118 40 45 95 108 122 140 45 53 51
57 92 57 l44 0 0 -135z"/>
<path d="M13752 9215 l-53 -65 55 0 56 0 0 65 c0 36 -1 65 -2 65 -2 0 -27 -29
-56 -65z"/>
<path d="M14878 10454 c-63 -19 -140 -96 -162 -160 -14 -42 -16 -122 -16 -668
0 -603 1 -622 21 -666 25 -55 80 -114 134 -143 40 -22 46 -22 659 -25 558 -2
625 -1 673 14 66 21 134 79 165 142 l23 47 0 635 c0 623 0 636 -21 680 -25 54
-72 103 -128 133 -41 22 -42 22 -671 24 -530 2 -638 0 -677 -13z m582 -344
c45 -78 85 -138 89 -135 3 3 42 66 86 138 l81 132 88 3 c76 2 88 1 83 -12 -4
-9 -63 -104 -131 -211 l-125 -195 -3 -148 -3 -147 -80 0 -80 0 -5 150 -5 150
-123 193 c-68 107 -126 200 -129 208 -4 11 11 14 85 14 l89 0 83 -140z m125
-691 c50 -14 102 -63 115 -109 5 -19 10 -69 10 -110 0 -91 -30 -164 -81 -201
-48 -34 -150 -39 -207 -10 -48 24 -50 35 -18 75 23 27 25 28 47 12 33 -23 104
-21 129 4 11 11 20 24 20 29 0 5 3 16 6 25 6 14 3 14 -32 0 -75 -31 -170 6
-198 76 -21 53 -20 75 4 126 23 46 49 67 101 82 46 14 57 14 104 1z"/>
<path d="M15482 9317 c-45 -48 -13 -107 56 -107 47 0 72 24 72 68 0 59 -85 85
-128 39z"/>
<path d="M16635 10454 c-55 -20 -110 -66 -143 -122 l-27 -47 0 -650 c0 -623 1
-652 19 -689 27 -53 80 -104 135 -130 45 -21 55 -21 681 -21 l635 0 50 27 c63
33 98 70 127 133 l23 50 0 630 c0 582 -1 633 -18 668 -24 52 -83 114 -131 140
-41 22 -45 22 -676 24 -533 1 -642 -1 -675 -13z m955 -274 l0 -70 -189 0 -189
0 -4 -70 -3 -70 168 0 167 0 0 -75 0 -75 -165 0 -165 0 0 -70 0 -70 190 0 190
0 0 -75 0 -75 -270 0 -270 0 0 360 0 360 270 0 270 0 0 -70z m-140 -798 c0
-32 -7 -45 -50 -87 -27 -27 -50 -52 -50 -55 0 -3 16 -12 36 -19 98 -35 96
-176 -4 -234 -63 -37 -197 -16 -242 38 -11 13 -9 20 15 45 34 35 39 36 72 10
47 -37 133 -21 133 24 0 33 -29 54 -80 58 -40 3 -45 6 -53 34 -9 30 -6 35 44
83 l54 51 -87 0 -88 0 0 45 0 45 150 0 150 0 0 -38z"/>
<path d="M2943 10289 c-74 -23 -125 -70 -162 -149 l-26 -55 -3 -449 c-3 -488
-1 -513 54 -596 101 -153 408 -159 520 -11 62 81 64 96 64 585 0 470 -2 494
-51 572 -65 106 -242 152 -396 103z m206 -203 l26 -26 0 -445 0 -445 -28 -27
c-23 -23 -36 -28 -77 -28 -41 0 -54 5 -77 28 l-28 27 0 444 c0 430 1 445 20
466 28 31 54 40 99 36 25 -3 49 -14 65 -30z"/>
<path d="M3556 10178 c-3 -62 -11 -223 -16 -358 -6 -135 -12 -260 -15 -277
l-4 -33 100 0 99 0 0 35 c0 47 22 98 51 119 13 9 43 16 67 16 34 0 49 -6 72
-28 37 -38 43 -78 38 -288 -4 -221 -17 -247 -119 -246 -82 1 -109 45 -109 172
l0 80 -102 0 -101 0 6 -107 c8 -130 26 -187 77 -246 54 -61 122 -89 225 -92
116 -4 177 16 241 80 83 82 89 112 89 410 0 217 -2 257 -18 303 -37 104 -104
151 -215 152 -72 0 -115 -15 -154 -55 l-28 -28 0 65 c0 36 3 106 6 156 l7 92
183 0 184 0 0 95 0 95 -279 0 -279 0 -6 -112z"/>
<path d="M4622 10263 c-9 -27 -57 -140 -273 -652 l-99 -233 0 -99 0 -99 205 0
205 0 0 -120 0 -120 105 0 105 0 0 120 0 120 50 0 50 0 0 94 0 95 -47 3 -48 3
-3 458 -2 457 -119 0 -119 0 -10 -27z m38 -643 l0 -250 -105 0 c-62 0 -105 4
-105 10 0 5 43 112 96 237 53 126 98 234 101 241 3 6 7 12 9 12 2 0 4 -112 4
-250z"/>
<path d="M5096 10218 c-6 -68 -36 -652 -36 -691 0 -15 12 -17 100 -17 l100 0
0 48 c0 65 28 109 75 118 59 11 103 -3 126 -39 18 -30 19 -47 17 -249 l-3
-218 -26 -26 c-22 -22 -36 -26 -79 -26 -43 0 -57 4 -79 26 -24 24 -26 34 -29
126 l-4 100 -100 0 -101 0 6 -112 c7 -174 47 -252 155 -305 51 -25 68 -28 158
-28 92 0 105 3 159 30 71 36 118 94 141 170 12 45 15 101 12 312 l-3 258 -28
58 c-40 80 -86 110 -179 115 -80 5 -147 -15 -177 -54 -10 -13 -22 -24 -25 -24
-7 0 0 188 10 268 l5 42 185 0 184 0 0 95 0 95 -279 0 -279 0 -6 -72z"/>
</g>
</svg>
