<?xml version="1.0" standalone="no"?>
<!DOCTYPE svg PUBLIC "-//W3C//DTD SVG 20010904//EN"
 "http://www.w3.org/TR/2001/REC-SVG-20010904/DTD/svg10.dtd">
<svg version="1.0" xmlns="http://www.w3.org/2000/svg"
 width="3080.000000pt" height="850.000000pt" viewBox="0 0 3080.000000 850.000000"
 preserveAspectRatio="xMidYMid meet">

<g transform="translate(0.000000,850.000000) scale(0.100000,-0.100000)"
fill="#000000" stroke="none">
<path d="M25541 7517 l-83 -162 22 -43 c34 -65 45 -172 32 -304 -7 -61 -122
-681 -258 -1376 -135 -695 -244 -1265 -242 -1267 2 -2 566 -4 1253 -5 1244 -2
1250 -2 1330 19 148 39 289 124 384 232 21 24 65 82 98 129 168 236 396 367
695 400 199 22 475 -20 652 -100 279 -125 472 -379 565 -745 9 -34 71 -389 71
-406 0 -7 329 37 420 57 98 21 186 57 261 105 l60 39 -3 553 c-5 616 -3 602
-78 763 -127 275 -351 462 -687 574 -65 21 -221 60 -347 85 -248 50 -359 82
-524 151 -229 96 -453 225 -907 524 -333 218 -401 259 -614 365 -501 250
-1068 422 -1799 545 -99 16 -188 30 -199 30 -13 0 -40 -42 -102 -163z m479
-287 c170 -25 561 -122 790 -196 596 -192 1061 -447 1363 -748 87 -86 235
-271 225 -281 -2 -2 -113 6 -248 16 -491 39 -1053 110 -1635 209 -291 49 -764
136 -799 147 -17 5 -18 13 -13 92 8 107 43 300 102 559 25 108 48 203 50 210
6 16 5 16 165 -8z m3885 -1510 c163 -19 334 -73 414 -131 87 -62 137 -189 106
-266 l-16 -39 -73 7 c-282 27 -544 148 -771 357 -32 29 -55 55 -53 58 8 7 152
21 233 23 39 0 111 -4 160 -9z m658 -1050 c30 -61 32 -70 32 -180 0 -104 -3
-120 -27 -172 -15 -32 -32 -58 -37 -58 -15 0 -59 69 -82 130 -26 70 -35 196
-20 301 19 130 17 127 63 83 21 -22 53 -68 71 -104z"/>
<path d="M5172 6903 c-11 -27 -298 -700 -637 -1498 -339 -797 -619 -1453 -622
-1457 -2 -5 148 -8 334 -8 l338 0 135 335 135 335 634 -3 635 -2 135 -332 135
-333 344 0 c251 0 343 3 340 11 -2 7 -289 684 -638 1505 l-635 1493 -306 1
-307 0 -20 -47z m517 -1234 c105 -257 191 -470 191 -473 0 -9 -780 -7 -780 2
0 19 386 950 392 944 3 -4 92 -217 197 -473z"/>
<path d="M14172 6833 c-28 -65 -314 -739 -637 -1498 -323 -759 -589 -1383
-592 -1387 -2 -5 148 -8 334 -8 l338 0 135 335 135 335 634 -3 635 -2 135
-332 135 -333 343 0 c189 0 343 3 342 8 0 4 -287 680 -637 1502 l-637 1495
-306 3 -307 2 -50 -117z m547 -1165 c105 -257 191 -469 191 -472 0 -9 -780 -7
-780 2 -1 19 386 950 392 944 3 -4 92 -217 197 -474z"/>
<path d="M21685 5663 c-301 -709 -590 -1386 -641 -1505 l-92 -218 336 0 337 0
135 335 135 335 635 -3 634 -2 135 -332 136 -333 343 0 c324 0 344 1 338 18
-4 9 -291 686 -639 1504 l-632 1487 -306 1 -306 0 -548 -1287z m1044 6 c105
-256 191 -469 191 -473 0 -3 -175 -6 -390 -6 -214 0 -390 3 -390 8 0 19 386
949 392 944 3 -4 92 -217 197 -473z"/>
<path d="M23060 6947 c0 -1 40 -97 90 -212 l90 -210 1000 -3 1000 -2 5 22 c3
13 21 102 41 198 19 96 37 183 40 193 5 16 -53 17 -1130 17 -625 0 -1136 -1
-1136 -3z"/>
<path d="M7510 5435 l0 -1495 325 0 325 0 0 945 c0 520 3 945 8 945 4 -1 330
-426 726 -945 l718 -945 284 0 284 0 0 1495 0 1495 -325 0 -325 0 0 -915 c0
-728 -3 -913 -12 -909 -7 3 -323 414 -703 914 l-690 909 -307 1 -308 0 0
-1495z"/>
<path d="M10650 6625 l0 -305 455 0 455 0 0 -1190 0 -1190 330 0 330 0 0 1190
0 1190 455 0 455 0 0 305 0 305 -1240 0 -1240 0 0 -305z"/>
<path d="M16540 5435 l0 -1495 1080 0 1080 0 0 295 0 295 -750 0 -750 0 0
1200 0 1200 -330 0 -330 0 0 -1495z"/>
<path d="M18404 6908 c8 -13 267 -421 575 -907 l561 -884 0 -589 0 -588 330 0
330 0 0 596 0 595 522 817 c287 449 545 854 575 900 l53 82 -377 -2 -376 -3
-356 -589 c-196 -324 -361 -591 -366 -592 -6 -2 -168 263 -361 589 l-351 592
-387 3 -387 2 15 -22z"/>
<path d="M66 6726 c-25 -57 -46 -106 -46 -110 0 -3 764 -6 1698 -6 l1697 0 45
102 c25 56 47 105 48 110 2 4 -761 8 -1696 8 l-1699 0 -47 -104z"/>
<path d="M3705 6798 c-7 -18 -29 -68 -49 -110 l-35 -78 632 0 633 0 44 102
c25 56 47 105 48 110 2 4 -280 8 -628 8 l-631 0 -14 -32z"/>
<path d="M1286 6332 c-11 -19 -166 -366 -166 -374 0 -4 744 -8 1653 -8 l1654
0 63 143 c35 78 74 166 86 195 l24 52 -1655 0 c-909 0 -1656 -4 -1659 -8z"/>
<path d="M23352 6261 c2 -5 172 -406 378 -890 l375 -881 356 0 c331 0 357 1
364 18 9 22 57 254 220 1054 74 361 137 668 141 683 l6 25 -922 0 c-544 0
-920 -4 -918 -9z"/>
<path d="M2447 5713 c-8 -14 -247 -553 -247 -558 0 -3 451 -5 1003 -5 l1002 0
126 285 127 285 -1003 0 c-552 0 -1006 -3 -1008 -7z"/>
<path d="M28743 4886 c-320 -61 -585 -273 -703 -564 -48 -119 -65 -212 -64
-357 1 -105 6 -149 27 -227 114 -433 495 -705 955 -684 118 6 206 28 321 82
584 274 721 1039 267 1489 -121 120 -273 206 -436 249 -88 23 -276 29 -367 12z
m309 -579 c74 -36 139 -101 175 -175 25 -50 28 -68 28 -152 0 -87 -3 -101 -32
-161 -39 -79 -102 -140 -181 -177 -49 -23 -70 -27 -147 -27 -77 0 -98 4 -147
27 -165 77 -250 253 -208 428 15 62 77 157 127 196 72 55 138 75 238 72 75 -3
100 -8 147 -31z"/>
<path d="M24210 4246 c0 -2 29 -71 64 -153 l63 -148 1564 -3 1565 -2 27 141
c16 78 26 143 23 146 -11 12 -3306 30 -3306 19z"/>
<path d="M9030 3644 c-118 -32 -212 -110 -268 -222 l-37 -76 0 -986 0 -985 33
-68 c43 -86 113 -156 199 -199 l68 -33 985 0 986 0 76 37 c114 57 191 150 222
273 14 51 16 179 16 972 0 629 -3 928 -11 965 -33 157 -170 293 -327 327 -37
8 -327 11 -970 10 -774 0 -926 -3 -972 -15z m980 -660 l255 -335 3 335 2 336
120 0 120 0 0 -555 0 -555 -102 1 -103 0 -265 350 -265 350 -3 -350 -2 -351
-120 0 -120 0 0 555 0 555 113 0 112 0 255 -336z m183 -977 c31 -16 57 -33 57
-38 0 -8 -47 -84 -67 -108 -2 -3 -24 6 -50 19 -110 55 -204 14 -228 -97 l-7
-33 44 20 c79 36 197 21 263 -33 92 -75 101 -220 19 -316 -47 -54 -119 -83
-209 -83 -86 1 -136 19 -187 69 -50 48 -76 114 -84 209 -15 198 61 361 191
409 67 24 188 16 258 -18z"/>
<path d="M9963 1659 c-42 -12 -63 -44 -63 -95 0 -98 139 -140 205 -62 48 57
22 137 -53 158 -43 11 -46 11 -89 -1z"/>
<path d="M11751 3644 c-162 -43 -285 -177 -311 -341 -14 -84 -13 -1813 1
-1889 24 -133 114 -249 236 -307 l68 -32 985 0 985 0 67 32 c125 59 215 180
238 319 14 82 13 1789 0 1874 -27 168 -149 301 -315 345 -86 22 -1871 22
-1954 -1z m1336 -868 c128 -301 233 -552 233 -557 0 -5 -56 -9 -124 -9 l-124
0 -49 123 -49 122 -236 3 -236 2 -49 -122 -49 -123 -122 -3 c-68 -1 -122 1
-122 6 0 5 99 241 219 523 120 283 226 531 235 552 l15 38 112 -3 112 -3 234
-549z m-224 -765 c69 -33 100 -85 105 -170 6 -112 -24 -158 -182 -283 l-98
-78 146 0 146 0 0 -65 0 -65 -255 0 -255 0 0 58 0 57 87 70 c152 122 224 187
244 219 45 74 8 146 -76 146 -39 0 -51 -6 -89 -40 -24 -22 -47 -40 -51 -40 -4
0 -30 18 -57 40 l-50 39 55 55 c38 38 69 59 103 70 69 22 167 16 227 -13z"/>
<path d="M12665 2858 c-39 -94 -71 -174 -73 -179 -2 -5 62 -9 142 -9 80 0 146
3 146 8 0 8 -124 314 -137 337 -6 10 -31 -40 -78 -157z"/>
<path d="M14475 3646 c-154 -38 -279 -164 -314 -317 -7 -28 -11 -381 -11 -964
0 -1004 -1 -980 57 -1087 36 -67 110 -133 191 -171 l67 -32 985 0 985 0 67 33
c85 42 177 137 210 219 l23 58 0 980 0 980 -32 68 c-58 122 -174 213 -302 237
-83 16 -1862 12 -1926 -4z m787 -565 l3 -238 220 238 220 238 143 1 c82 0 142
-4 140 -9 -1 -5 -101 -111 -221 -236 -156 -161 -216 -229 -209 -238 47 -59
445 -603 449 -614 4 -11 -19 -13 -138 -11 l-143 3 -170 233 -169 233 -64 -63
-63 -62 0 -173 0 -173 -125 0 -125 0 0 555 0 555 125 0 125 0 2 -239z m408
-1116 l0 -64 -147 -3 -148 -3 -3 -55 -3 -56 68 4 c95 5 149 -11 199 -62 88
-87 85 -226 -5 -316 -55 -55 -105 -72 -207 -71 -79 0 -135 19 -206 68 -42 28
-44 21 25 102 l28 33 37 -25 c71 -49 137 -60 192 -32 34 18 50 43 50 80 0 79
-91 117 -201 83 -35 -10 -42 -9 -80 16 l-41 28 6 141 c4 78 9 154 12 170 l6
27 209 0 209 0 0 -65z"/>
<path d="M17200 3649 c-118 -23 -233 -115 -291 -234 l-34 -70 -3 -959 c-3
-1047 -4 -1012 54 -1112 35 -60 125 -141 191 -172 l58 -27 969 -3 c875 -2 975
-1 1020 14 113 36 206 120 259 232 l32 67 0 970 c0 914 -1 973 -18 1022 -40
113 -142 214 -262 259 -47 18 -99 19 -990 21 -517 0 -960 -3 -985 -8z m860
-774 l0 -445 275 0 275 0 0 -110 0 -110 -395 0 -395 0 0 555 0 555 120 0 120
0 0 -445z m320 -910 l0 -65 -145 0 -145 0 0 -58 0 -58 65 4 c161 10 256 -68
257 -211 1 -153 -93 -238 -260 -238 -87 0 -142 16 -207 61 -50 35 -50 36 8
103 l33 39 52 -32 c95 -60 198 -48 222 25 31 94 -64 151 -191 114 -34 -11 -41
-9 -81 16 l-43 27 9 169 9 169 208 0 209 0 0 -65z"/>
<path d="M19903 3645 c-142 -39 -253 -143 -297 -281 -15 -45 -16 -145 -14
-1020 l3 -969 33 -68 c43 -86 113 -156 199 -199 l68 -33 985 0 985 0 68 32
c122 58 213 174 237 302 14 73 14 1829 0 1901 -31 164 -152 292 -315 335 -85
22 -1871 22 -1952 0z m1107 -418 l0 -93 -42 -12 c-24 -6 -78 -23 -120 -36
l-78 -24 0 129 0 129 120 0 120 0 0 -93z m0 -622 l0 -395 -120 0 -120 0 0 358
0 358 113 36 c61 20 115 36 120 37 4 1 7 -177 7 -394z m70 -775 l0 -210 45 0
45 0 0 -65 0 -65 -45 0 -45 0 0 -70 0 -70 -75 0 -75 0 0 70 0 70 -164 0 c-181
0 -170 -4 -181 71 l-6 44 187 218 188 217 63 0 63 0 0 -210z"/>
<path d="M20843 1723 l-82 -98 81 -3 c44 -2 82 -1 85 1 2 3 2 48 1 101 l-3 96
-82 -97z"/>
<path d="M22621 3644 c-159 -43 -280 -173 -311 -334 -15 -77 -14 -1832 1
-1902 28 -133 115 -243 236 -301 l68 -32 985 0 985 0 68 33 c86 43 156 113
199 199 l33 68 0 990 0 990 -28 57 c-58 117 -158 200 -282 233 -86 22 -1871
22 -1954 -1z m855 -544 c71 -120 131 -219 134 -220 3 0 65 99 138 220 l133
220 135 0 c74 0 134 -3 134 -6 0 -4 -94 -154 -210 -335 l-210 -328 0 -221 0
-220 -120 0 -120 0 0 218 0 217 -206 325 c-114 179 -209 331 -211 338 -4 9 27
12 134 12 l140 0 129 -220z m215 -1072 c49 -14 114 -69 138 -117 58 -115 52
-325 -14 -438 -33 -55 -95 -107 -147 -123 -73 -21 -170 -15 -238 16 -86 39
-88 44 -45 106 l38 54 56 -29 c96 -49 181 -26 217 60 25 58 20 64 -33 41 -37
-16 -60 -19 -112 -16 -150 11 -232 104 -218 246 10 92 67 165 155 197 46 17
152 19 203 3z"/>
<path d="M23509 1881 c-23 -23 -29 -38 -29 -71 0 -33 6 -48 29 -71 26 -25 37
-29 86 -29 65 0 99 18 114 61 15 43 3 85 -31 114 -24 20 -41 25 -85 25 -47 0
-59 -4 -84 -29z"/>
<path d="M25345 3646 c-110 -27 -213 -103 -268 -197 -58 -99 -57 -80 -57
-1089 0 -740 3 -935 14 -975 38 -145 148 -260 287 -299 49 -15 160 -16 1020
-14 l964 3 58 27 c66 31 156 112 190 172 60 103 58 52 55 1107 l-3 964 -32 68
c-58 122 -174 213 -302 237 -83 16 -1862 12 -1926 -4z m1415 -436 l0 -110
-295 0 -295 0 0 -110 0 -110 260 0 260 0 0 -110 0 -110 -260 0 -260 0 0 -115
0 -115 300 0 300 0 0 -110 0 -110 -420 0 -420 0 0 555 0 555 415 0 415 0 0
-110z m-210 -1239 l0 -59 -85 -79 -86 -80 43 -12 c93 -28 138 -88 138 -185 0
-91 -50 -166 -134 -201 -46 -19 -171 -22 -224 -4 -46 15 -100 49 -130 81 l-23
25 51 46 51 46 45 -34 c68 -52 159 -59 199 -15 17 19 23 79 10 100 -13 22 -73
40 -129 40 l-55 0 -10 38 c-6 20 -11 44 -11 52 0 8 35 50 77 92 l78 78 -133 0
-132 0 0 65 0 65 230 0 230 0 0 -59z"/>
<path d="M4183 3396 c-124 -31 -230 -111 -284 -218 -58 -115 -59 -122 -59
-840 0 -701 1 -715 50 -825 85 -189 304 -283 560 -242 184 29 310 143 368 334
23 74 30 1285 8 1411 -35 206 -150 335 -338 379 -76 18 -233 18 -305 1z m254
-312 c16 -11 37 -38 48 -60 19 -38 20 -59 20 -689 0 -636 0 -651 -21 -690 -29
-58 -91 -88 -163 -81 -58 5 -91 24 -125 70 -21 27 -21 39 -24 689 l-2 662 22
45 c31 61 73 82 155 78 43 -3 72 -10 90 -24z"/>
<path d="M5090 3350 c0 -43 -46 -1015 -53 -1117 l-5 -63 158 0 158 0 3 84 c4
90 17 119 72 160 70 52 201 20 241 -59 20 -38 21 -57 21 -355 0 -352 -3 -368
-71 -410 -44 -28 -141 -29 -186 -3 -66 38 -73 59 -76 224 l-3 149 -160 0 -159
0 0 -102 c1 -261 60 -421 190 -511 188 -131 527 -106 670 49 54 59 98 154 115
251 20 110 20 657 0 767 -29 166 -109 268 -238 308 -135 41 -280 7 -363 -84
l-37 -42 7 160 c3 87 9 198 13 247 l6 87 283 0 284 0 0 150 0 150 -435 0 -435
0 0 -40z"/>
<path d="M6756 3382 c-3 -5 -138 -323 -300 -708 l-296 -699 0 -152 0 -153 315
0 315 0 0 -190 0 -190 165 0 165 0 0 190 0 190 75 0 75 0 0 150 0 150 -75 0
-75 0 0 710 0 710 -179 0 c-99 0 -182 -4 -185 -8z m31 -1409 c-3 -2 -76 -2
-164 -1 l-160 3 161 381 161 382 3 -381 c1 -209 1 -382 -1 -384z"/>
<path d="M7466 3368 c-4 -22 -57 -1115 -56 -1170 l0 -28 155 0 155 0 0 68 c0
51 6 79 23 112 34 67 65 85 147 85 78 0 110 -17 145 -76 19 -32 20 -52 20
-359 0 -309 -1 -327 -20 -360 -30 -50 -74 -72 -145 -72 -71 0 -115 22 -145 72
-17 30 -21 56 -23 178 l-4 142 -154 0 -154 0 0 -142 c0 -162 14 -238 60 -326
73 -141 192 -213 378 -228 217 -18 404 72 482 230 53 108 60 166 60 528 0 429
-15 510 -115 617 -87 93 -226 124 -365 82 -59 -18 -81 -31 -121 -71 -58 -58
-54 -84 -37 223 l11 217 289 0 288 0 0 150 0 150 -435 0 -435 0 -4 -22z"/>
</g>
</svg>
